<svg width="24" height="24" viewBox="0 0 24 24" fill="none" xmlns="http://www.w3.org/2000/svg">
<path d="M13.8994 5.3998C14.1923 5.10694 14.6671 5.107 14.96 5.3998L21.0303 11.4701C21.1707 11.6107 21.25 11.8016 21.25 12.0004C21.2499 12.1991 21.1708 12.3901 21.0303 12.5307L14.96 18.6C14.6671 18.8927 14.1922 18.8928 13.8994 18.6C13.6069 18.3072 13.6068 17.8323 13.8994 17.5395L18.6875 12.7504H3.5C3.08591 12.7504 2.7502 12.4144 2.75 12.0004C2.75 11.5862 3.08579 11.2504 3.5 11.2504H18.6895L13.8994 6.46035C13.6067 6.16752 13.6068 5.69268 13.8994 5.3998Z" fill="white"/>
</svg>
