<svg width="24" height="24" viewBox="0 0 24 24" fill="none" xmlns="http://www.w3.org/2000/svg">
<path d="M14.1494 5.21963C14.4423 4.92676 14.9171 4.92682 15.21 5.21963L21.2803 11.2899C21.4207 11.4306 21.5 11.6214 21.5 11.8202C21.4999 12.019 21.4208 12.2099 21.2803 12.3505L15.21 18.4198C14.9171 18.7125 14.4422 18.7126 14.1494 18.4198C13.8569 18.127 13.8568 17.6521 14.1494 17.3593L18.9375 12.5702H3.75C3.33591 12.5702 3.0002 12.2343 3 11.8202C3 11.406 3.33579 11.0702 3.75 11.0702H18.9395L14.1494 6.28017C13.8567 5.98735 13.8568 5.51251 14.1494 5.21963Z" fill="white"/>
</svg>
